<svg xmlns="http://www.w3.org/2000/svg" width="100" height="100" viewBox="0 0 100 100" fill="none">
  <path d="M100 50C100 77.6142 77.6142 100 50 100C22.3858 100 0 77.6142 0 50C0 22.3858 22.3858 0 50 0C77.6142 0 100 22.3858 100 50Z" fill="url(#paint0_linear_1_49)"/>
  <path d="M75 38.94V67.0714C75 69.6599 72.9004 71.76 70.3125 71.76H29.6875C27.0996 71.76 25 69.6599 25 67.0714V38.94C25 36.3515 27.0996 34.2514 29.6875 34.2514H38.2812L39.4824 31.0378C40.166 29.2112 41.9141 28 43.8672 28H56.123C58.0762 28 59.8242 29.2112 60.5078 31.0378L61.7188 34.2514H70.3125C72.9004 34.2514 75 36.3515 75 38.94ZM61.7188 53.0057C61.7188 46.5394 56.4648 41.2843 50 41.2843C43.5352 41.2843 38.2812 46.5394 38.2812 53.0057C38.2812 59.472 43.5352 64.7271 50 64.7271C56.4648 64.7271 61.7188 59.472 61.7188 53.0057ZM58.5938 53.0057C58.5938 57.7431 54.7363 61.6014 50 61.6014C45.2637 61.6014 41.4062 57.7431 41.4062 53.0057C41.4062 48.2683 45.2637 44.41 50 44.41C54.7363 44.41 58.5938 48.2683 58.5938 53.0057Z" fill="black"/>
  <defs>
    <linearGradient id="paint0_linear_1_49" x1="50" y1="0" x2="50" y2="100" gradientUnits="userSpaceOnUse">
      <stop offset="0.53" stop-color="#BCFFFB"/>
      <stop offset="1" stop-color="#BCDBFF" stop-opacity="0"/>
    </linearGradient>
  </defs>
</svg>