<svg xmlns="http://www.w3.org/2000/svg" width="30" height="28" viewBox="0 0 30 28" fill="none">
  <path d="M15 0C11.3755 0 8.4375 2.99898 8.4375 6.69867C8.4375 9.68968 12.7266 15.1411 14.3698 17.1199C14.7026 17.5207 15.2979 17.5207 15.6302 17.1199C17.2734 15.1411 21.5625 9.68968 21.5625 6.69867C21.5625 2.99898 18.6245 0 15 0ZM15 8.93156C13.7917 8.93156 12.8125 7.93208 12.8125 6.69867C12.8125 5.46527 13.7917 4.46578 15 4.46578C16.2083 4.46578 17.1875 5.46527 17.1875 6.69867C17.1875 7.93208 16.2083 8.93156 15 8.93156ZM1.04792 11.4808C0.738634 11.607 0.473505 11.825 0.286724 12.1065C0.099942 12.3881 7.40733e-05 12.7203 0 13.0603L0 26.3683C0 26.9701 0.595312 27.3816 1.14271 27.1583L8.33333 23.8175V11.426C7.87292 10.5765 7.49635 9.74923 7.22656 8.95814L1.04792 11.4808ZM15 19.1215C14.2672 19.1215 13.574 18.793 13.0984 18.2199C12.0745 16.9864 10.9854 15.5819 10 14.1411V23.817L20 27.2195V14.1416C19.0146 15.5819 17.926 16.987 16.9016 18.2204C16.426 18.793 15.7328 19.1215 15 19.1215ZM28.8573 8.56792L21.6667 11.9087V27.22L28.9521 24.2455C29.2614 24.1193 29.5266 23.9013 29.7134 23.6198C29.9002 23.3382 30 23.006 30 22.666V9.35794C30 8.75612 29.4047 8.34463 28.8573 8.56792Z" fill="#CACACA"/>
</svg>