<svg xmlns="http://www.w3.org/2000/svg" width="30" height="30" viewBox="0 0 30 30" fill="none">
  <g clip-path="url(#clip0_4_70)">
    <circle cx="14.1475" cy="12.3396" r="60" fill="white"/>
    <path d="M14.6026 9.38854L4.99999 17.2974V25.8333C4.99999 26.0543 5.08778 26.2663 5.24406 26.4226C5.40034 26.5789 5.61231 26.6667 5.83332 26.6667L11.6698 26.6516C11.8901 26.6505 12.101 26.5622 12.2563 26.406C12.4117 26.2499 12.4989 26.0385 12.4989 25.8182V20.8333C12.4989 20.6123 12.5867 20.4004 12.743 20.2441C12.8993 20.0878 13.1113 20 13.3323 20H16.6656C16.8866 20 17.0986 20.0878 17.2549 20.2441C17.4111 20.4004 17.4989 20.6123 17.4989 20.8333V25.8146C17.4986 25.9242 17.5199 26.0329 17.5616 26.1343C17.6034 26.2357 17.6647 26.3279 17.7421 26.4055C17.8195 26.4832 17.9115 26.5448 18.0128 26.5868C18.114 26.6289 18.2226 26.6505 18.3323 26.6505L24.1667 26.6667C24.3877 26.6667 24.5996 26.5789 24.7559 26.4226C24.9122 26.2663 25 26.0543 25 25.8333V17.2917L15.3995 9.38854C15.2866 9.29756 15.146 9.24795 15.001 9.24795C14.8561 9.24795 14.7155 9.29756 14.6026 9.38854ZM29.7708 14.7641L25.4167 11.175V3.96094C25.4167 3.79518 25.3508 3.63621 25.2336 3.519C25.1164 3.40179 24.9574 3.33594 24.7917 3.33594H21.875C21.7092 3.33594 21.5503 3.40179 21.433 3.519C21.3158 3.63621 21.25 3.79518 21.25 3.96094V7.74271L16.587 3.90625C16.1395 3.53801 15.5779 3.33667 14.9984 3.33667C14.4189 3.33667 13.8574 3.53801 13.4099 3.90625L0.226029 14.7641C0.162741 14.8164 0.11038 14.8806 0.0719388 14.9532C0.0334971 15.0257 0.00972777 15.1052 0.00198892 15.1869C-0.00574994 15.2686 0.00269334 15.3511 0.0268363 15.4296C0.0509793 15.5081 0.0903489 15.581 0.142695 15.6443L1.47082 17.2589C1.52302 17.3223 1.58724 17.3749 1.65978 17.4135C1.73232 17.4521 1.81177 17.4761 1.89358 17.484C1.97538 17.4919 2.05794 17.4835 2.13653 17.4595C2.21511 17.4354 2.28818 17.3961 2.35155 17.3438L14.6026 7.25313C14.7155 7.16215 14.8561 7.11254 15.001 7.11254C15.146 7.11254 15.2866 7.16215 15.3995 7.25313L27.651 17.3438C27.7143 17.3961 27.7872 17.4355 27.8657 17.4596C27.9442 17.4838 28.0267 17.4922 28.1084 17.4845C28.1901 17.4767 28.2696 17.4529 28.3421 17.4145C28.4147 17.3761 28.4789 17.3237 28.5312 17.2604L29.8594 15.6458C29.9117 15.5822 29.9509 15.5089 29.9747 15.4301C29.9986 15.3512 30.0066 15.2685 29.9984 15.1865C29.9902 15.1046 29.9658 15.0251 29.9268 14.9526C29.8877 14.8801 29.8347 14.816 29.7708 14.7641Z" fill="#CACACA"/>
  </g>
  <defs>
    <clipPath id="clip0_4_70">
      <rect width="30" height="30" fill="white"/>
    </clipPath>
  </defs>
</svg>